#!OML:ASF E:/inclinewalkrobotboard/Project1/Captureday1/Session1/subject1.ASF
:FULLY-SPECIFIED
:DEGREES
88
root 0 0 0 -0.5094035026986995 -3.0168180109578837 -0.19521614551552724
lowerback 11.216172263415709 0.6352731607055753 0.39967221490727667
upperback -1.9402267927181347 0.9283279855569541 0.4975525629210727
thorax -8.373075896916701 0.4321684776560452 0.10982560962182808
lowerneck -11.417365518391016 -0.6323003192256219 1.3468897909776099
upperneck 18.85996675010253 -0.2541697748306886 -3.8977355986735787
head 7.824183666164625 -0.3161191799915951 -1.5693102605543463
rclavicle -5.483596169491413E-16 -6.198501966486452E-16
rhumerus -0.5199991860663982 0.9127362007516222 -60.20942085399095
rradius 53.34383891468681
rwrist 17.455163840140763
rhand -27.243479542220843 -23.441274592598567
rfingers 7.125019999999925
rthumb -0.8367322327788669 -53.57796162968212
lclavicle -4.9000574070962715E-16 -6.929452252184814E-16
lhumerus -1.2918697732624 -6.925706560979633 60.48561980336217
lradius 52.64000502968817
lwrist -11.13401266214776
lhand -37.27097020891525 -31.225084770225763
lfingers 7.12501999999992
lthumb -10.373516327679528 -1.6715913711326245
rfemur -21.383450459732032 -0.3415199446908943 19.544437963360526
rtibia 50.61462625854483
rfoot -22.769699166361363 -13.853582029621588
rtoes -12.22740920110424
lfemur -23.13164814491501 1.5482049567766976 -18.141682998776012
ltibia 50.12888144693012
lfoot -25.961411570477946 -3.653382862108609
ltoes -16.722896935249278
89
root 0 0 0 -0.509184472932286 -3.0168788383393457 -0.1949704798532491
lowerback 11.216256292405525 0.6353052906524251 0.39960899329755095
upperback -1.9405132053818739 0.9283459799575218 0.4974183136269076
thorax -8.373423244739982 0.4321776341465675 0.10971353815040852
lowerneck -11.41675019093163 -0.632046590966876 1.347255378130965
upperneck 18.85991558820384 -0.2537814287994802 -3.898229873087835
head 7.824065424193278 -0.31594731517632646 -1.569495371393922
rclavicle -5.483289892265999E-16 -6.1976471098733375E-16
rhumerus -0.5271106297026176 0.9080582158515611 -60.21369063458255
rradius 53.337343822682996
rwrist 17.451880027993596
rhand -27.241098396454788 -23.429901289399496
rfingers 7.125019999999925
rthumb -0.8345063743693641 -53.56666377183913
lclavicle -4.901267346722881E-16 -6.929044492909591E-16
lhumerus -1.299168683931022 -6.923966871389976 60.49076820342138
lradius 52.63439701819863
lwrist -11.130199569477204
lhand -37.26853378487874 -31.212359604521673
lfingers 7.12501999999992
lthumb -10.371189195013926 -1.658744915003897
rfemur -21.385392658594768 -0.3426933439508675 19.542862520020744
rtibia 50.61717270776019
rfoot -22.77316647184236 -13.855275434426055
rtoes -12.231088533134987
lfemur -23.12877378224112 1.5475035334667215 -18.141985004628374
ltibia 50.12534140451868
lfoot -25.957390851417436 -3.65319656054073
ltoes -16.720246954778005
90
root 0 0 0 -0.5121642837483126 -3.0159479381344925 -0.19792445448983464
lowerback 11.215146820039955 0.6348319558047537 0.40023625283097813
upperback -1.9367375482649993 0.927937109874794 0.4991243002669757
thorax -8.368618028410099 0.4320395397441204 0.11122160909268658
lowerneck -11.424791823851852 -0.6354398692556982 1.3422870647848542
upperneck 18.860464266077066 -0.258837209444432 -3.891672326816555
head 7.82555519059188 -0.31815488949117265 -1.5670134935696098
rclavicle -5.486062834755272E-16 -6.203932242022299E-16
rhumerus -0.5194081943844377 0.913423509284117 -60.20814623966844
rradius 53.34498224673168
rwrist 17.456061238875137
rhand -27.244101189486088 -23.44404640864304
rfingers 7.125019999999925
rthumb -0.8375964955767481 -53.58155722978761
lclavicle -4.900414824476419E-16 -6.937186119744465E-16
lhumerus -1.282385577971386 -6.92813543930518 60.47893927020058
lradius 52.64962519770683
lwrist -11.13930098933022
lhand -37.27484357787054 -31.241596642591894
lfingers 7.12501999999992
lthumb -10.37685603424773 -1.6902618416143902
rfemur -21.379279039590426 -0.33882620384598194 19.5479366179161
rtibia 50.60858198426123
rfoot -22.761787042821517 -13.84939938092958
rtoes -12.218657835547099
lfemur -23.120923958046504 1.5456390908106254 -18.143004615543692
ltibia 50.116163327820935
lfoot -25.946128258096756 -3.652965069390455
ltoes -16.71360159479542
91
root 0 0 0 -0.510202965621093 -3.01656385826714 -0.1960303950786847
lowerback 11.215861388940795 0.635142696249075 0.3998431057069362
upperback -1.9391911536946678 0.9282298112933969 0.49802860046820985
thorax -8.37176191119317 0.4321323761720276 0.11025193211475953
lowerneck -11.419586611270065 -0.6332242139353291 1.3455340927591672
upperneck 18.860138228523915 -0.2555752458921483 -3.895928973149341
head 7.824610107330729 -0.31673403651423804 -1.5686374128369827
rclavicle -5.48299324509055E-16 -6.199515116781666E-16
rhumerus -0.5178779899358883 0.9141581344826246 -60.20811123970181
rradius 53.34582331678383
rwrist 17.456199143628787
rhand -27.24422302595636 -23.444704877628183
rfingers 7.125019999999925
rthumb -0.8374429929432123 -53.5812903655262
lclavicle -4.899260501076682E-16 -6.930149799459324E-16
lhumerus -1.286034551785617 -6.927136155375962 60.481514515573515
lradius 52.644589030793476
lwrist -11.137051102042975
lhand -37.272946948669194 -31.235385091721767
lfingers 7.12501999999992
lthumb -10.375382532404073 -1.6818300975426332
rfemur -21.379951457108497 -0.3392915524584237 19.547337489500848
rtibia 50.60964127935322
rfoot -22.763153506304015 -13.85043258547915
rtoes -12.220596309946664
lfemur -23.13111976670114 1.5480974553296547 -18.141706620063317
ltibia 50.12858651561274
lfoot -25.960760428220553 -3.6534407967398126
ltoes -16.72250640388608
92
root 0 0 0 -0.5095162185249106 -3.0168130072684263 -0.19537051104915482
lowerback 11.216129615032669 0.6352731619503319 0.3997296456083641
upperback -1.940080437527572 0.9283378009866367 0.4976179351951839
thorax -8.37288906085746 0.4321674191131197 0.10986428288928568
lowerneck -11.417683493466273 -0.6324503832517668 1.346692029182571
upperneck 18.859996882006385 -0.25438078523587104 -3.8974741075340384
head 7.824248904652675 -0.3162064742836479 -1.5692107058645535
rclavicle -5.48353006778668E-16 -6.198533571933207E-16
rhumerus -0.519506374985264 0.9130665233542885 -60.20913596012268
rradius 53.34428020900773
rwrist 17.455378945831747
rhand -27.243639717536194 -23.44204987374033
rfingers 7.125019999999925
rthumb -0.836879997843571 -53.57871253284665
lclavicle -4.90038453378591E-16 -6.929309292309669E-16
lhumerus -1.293906763737393 -6.92521198172877 60.48703952053298
lradius 52.638430924114196
lwrist -11.132956512402739
lhand -37.270292735478 -31.221535383473075
lfingers 7.12501999999992
lthumb -10.372867418027385 -1.6680244440379397
rfemur -21.381415838170998 -0.340292585569387 19.546091494616284
rtibia 50.61196697070682
rfoot -22.766063882528222 -13.85181258449191
rtoes -12.22357022423218
lfemur -23.133446335988513 1.5486406183836314 -18.141485427590666
ltibia 50.13104090012307
lfoot -25.96390852252016 -3.653470314593337
ltoes -16.724515080607787
